# Exported from Wings 3D 1.5.4
mtllib cornell_uv.mtl
o tall_block
#20 vertices, 5 faces
v 158.60840201 166.67654110 247.00000000
v 0.60840201 166.67654110 296.00000000
v 49.60840201 166.67654110 456.00000000
v 207.60840201 166.67654110 406.00000000
v 158.60840201 -163.32345890 247.00000000
v 158.60840201 166.67654110 247.00000000
v 207.60840201 166.67654110 406.00000000
v 207.60840201 -163.32345890 406.00000000
v 207.60840201 -163.32345890 406.00000000
v 207.60840201 166.67654110 406.00000000
v 49.60840201 166.67654110 456.00000000
v 49.60840201 -163.32345890 456.00000000
v 49.60840201 -163.32345890 456.00000000
v 49.60840201 166.67654110 456.00000000
v 0.60840201 166.67654110 296.00000000
v 0.60840201 -163.32345890 296.00000000
v 0.60840201 -163.32345890 296.00000000
v 0.60840201 166.67654110 296.00000000
v 158.60840201 166.67654110 247.00000000
v 158.60840201 -163.32345890 247.00000000
vn 0.0000000e+0 1.00000000 0.0000000e+0
vn 0.0000000e+0 1.00000000 0.0000000e+0
vn 0.0000000e+0 1.00000000 0.0000000e+0
vn 0.0000000e+0 1.00000000 0.0000000e+0
vn 0.95564896 0.0000000e+0 -0.29450817
vn 0.95564896 0.0000000e+0 -0.29450817
vn 0.95564896 0.0000000e+0 -0.29450817
vn 0.95564896 0.0000000e+0 -0.29450817
vn 0.30170889 0.0000000e+0 0.95340010
vn 0.30170889 0.0000000e+0 0.95340010
vn 0.30170889 0.0000000e+0 0.95340010
vn 0.30170889 0.0000000e+0 0.95340010
vn -0.95616581 0.0000000e+0 0.29282578
vn -0.95616581 0.0000000e+0 0.29282578
vn -0.95616581 0.0000000e+0 0.29282578
vn -0.95616581 0.0000000e+0 0.29282578
vn -0.29620907 0.0000000e+0 -0.95512313
vn -0.29620907 0.0000000e+0 -0.95512313
vn -0.29620907 0.0000000e+0 -0.95512313
vn -0.29620907 0.0000000e+0 -0.95512313
g tall_block_white
usemtl white
s 1
f 2//2 3//3 4//4 1//1
f 6//6 7//7 8//8 5//5
f 10//10 11//11 12//12 9//9
f 14//14 15//15 16//16 13//13
f 18//18 19//19 20//20 17//17
o short_block
#20 vertices, 5 faces
v -134.39159799 1.67654110 65.00000000
v -182.39159799 1.67654110 225.00000000
v -24.39159799 1.67654110 272.00000000
v 25.60840201 1.67654110 114.00000000
v 25.60840201 -163.32345890 114.00000000
v 25.60840201 1.67654110 114.00000000
v -24.39159799 1.67654110 272.00000000
v -24.39159799 -163.32345890 272.00000000
v -134.39159799 -163.32345890 65.00000000
v -134.39159799 1.67654110 65.00000000
v 25.60840201 1.67654110 114.00000000
v 25.60840201 -163.32345890 114.00000000
v -182.39159799 -163.32345890 225.00000000
v -182.39159799 1.67654110 225.00000000
v -134.39159799 1.67654110 65.00000000
v -134.39159799 -163.32345890 65.00000000
v -24.39159799 -163.32345890 272.00000000
v -24.39159799 1.67654110 272.00000000
v -182.39159799 1.67654110 225.00000000
v -182.39159799 -163.32345890 225.00000000
vn 0.0000000e+0 1.00000000 0.0000000e+0
vn 0.0000000e+0 1.00000000 0.0000000e+0
vn 0.0000000e+0 1.00000000 0.0000000e+0
vn 0.0000000e+0 1.00000000 0.0000000e+0
vn 0.95340010 0.0000000e+0 0.30170889
vn 0.95340010 0.0000000e+0 0.30170889
vn 0.95340010 0.0000000e+0 0.30170889
vn 0.95340010 0.0000000e+0 0.30170889
vn 0.29282578 0.0000000e+0 -0.95616581
vn 0.29282578 0.0000000e+0 -0.95616581
vn 0.29282578 0.0000000e+0 -0.95616581
vn 0.29282578 0.0000000e+0 -0.95616581
vn -0.95782629 0.0000000e+0 -0.28734789
vn -0.95782629 0.0000000e+0 -0.28734789
vn -0.95782629 0.0000000e+0 -0.28734789
vn -0.95782629 0.0000000e+0 -0.28734789
vn -0.28512091 0.0000000e+0 0.95849156
vn -0.28512091 0.0000000e+0 0.95849156
vn -0.28512091 0.0000000e+0 0.95849156
vn -0.28512091 0.0000000e+0 0.95849156
g short_block_white
usemtl white
s 1
f 22//22 23//23 24//24 21//21
f 26//26 27//27 28//28 25//25
f 30//30 31//31 32//32 29//29
f 34//34 35//35 36//36 33//33
f 38//38 39//39 40//40 37//37
o red_wall
#4 vertices, 1 faces
v 288.40840201 -163.32345890 0.0000000e+0
v 285.20840201 -163.32345890 559.20000000
v 291.60840201 385.47654110 559.20000000
v 291.60840201 385.47654110 0.0000000e+0
vn -0.99995766 8.7459854e-3 -2.8611092e-3
vn -0.99995766 8.7459854e-3 -2.8611092e-3
vn -0.99995766 8.7459854e-3 -2.8611092e-3
vn -0.99995766 8.7459854e-3 -2.8611092e-3
g red_wall_red
usemtl red
s 1
f 42//42 43//43 44//44 41//41
o green_wall
#4 vertices, 1 faces
v -264.39159799 -163.32345890 559.20000000
v -264.39159799 -163.32345890 0.0000000e+0
v -264.39159799 385.47654110 0.0000000e+0
v -264.39159799 385.47654110 559.20000000
vn 1.00000000 0.0000000e+0 0.0000000e+0
vn 1.00000000 0.0000000e+0 0.0000000e+0
vn 1.00000000 0.0000000e+0 0.0000000e+0
vn 1.00000000 0.0000000e+0 0.0000000e+0
g green_wall_green
usemtl green
s 1
f 46//46 47//47 48//48 45//45
o back_wall
#4 vertices, 1 faces
v 285.20840201 -163.32345890 559.20000000
v -264.39159799 -163.32345890 559.20000000
v -264.39159799 385.47654110 559.20000000
v 291.60840201 385.47654110 559.20000000
vt 0.0000000e+0 0.98701805
vt 1.1476431e-2 0.0000000e+0
vt 0.99993371 0.98705116
vt 1.00000000 3.3306691e-16
vn 0.0000000e+0 0.0000000e+0 -1.00000000
vn 0.0000000e+0 0.0000000e+0 -1.00000000
vn 0.0000000e+0 0.0000000e+0 -1.00000000
vn 0.0000000e+0 0.0000000e+0 -1.00000000
g back_wall_back_wall_auv
usemtl back_wall_auv
s 1
f 50/4/50 51/3/51 52/1/52 49/2/49
o ceiling
#4 vertices, 1 faces
v 291.60840201 385.47654110 0.0000000e+0
v 291.60840201 385.47654110 559.20000000
v -264.39159799 385.47654110 559.20000000
v -264.39159799 385.47654110 0.0000000e+0
vn 0.0000000e+0 -1.00000000 0.0000000e+0
vn 0.0000000e+0 -1.00000000 0.0000000e+0
vn 0.0000000e+0 -1.00000000 0.0000000e+0
vn 0.0000000e+0 -1.00000000 0.0000000e+0
g ceiling_white
usemtl white
s 1
f 54//54 55//55 56//56 53//53
o light
#4 vertices, 1 faces
v 78.60840201 384.67654110 227.00000000
v 78.60840201 384.67654110 332.00000000
v -51.39159799 384.67654110 332.00000000
v -51.39159799 384.67654110 227.00000000
vn 0.0000000e+0 -1.00000000 0.0000000e+0
vn 0.0000000e+0 -1.00000000 0.0000000e+0
vn 0.0000000e+0 -1.00000000 0.0000000e+0
vn 0.0000000e+0 -1.00000000 0.0000000e+0
g light_light
usemtl light
s 1
f 58//58 59//59 60//60 57//57
o floor
#12 vertices, 3 faces
v 288.40840201 -163.32345890 0.0000000e+0
v -264.39159799 -163.32345890 0.0000000e+0
v -264.39159799 -163.32345890 559.20000000
v 285.20840201 -163.32345890 559.20000000
v -134.39159799 -163.32345890 65.00000000
v -182.39159799 -163.32345890 225.00000000
v -24.39159799 -163.32345890 272.00000000
v 25.60840201 -163.32345890 114.00000000
v 158.60840201 -163.32345890 247.00000000
v 0.60840201 -163.32345890 296.00000000
v 49.60840201 -163.32345890 456.00000000
v 207.60840201 -163.32345890 406.00000000
vn 0.0000000e+0 1.00000000 0.0000000e+0
vn 0.0000000e+0 1.00000000 0.0000000e+0
vn 0.0000000e+0 1.00000000 0.0000000e+0
vn 0.0000000e+0 1.00000000 0.0000000e+0
vn 0.0000000e+0 -1.00000000 0.0000000e+0
vn 0.0000000e+0 -1.00000000 0.0000000e+0
vn 0.0000000e+0 -1.00000000 0.0000000e+0
vn 0.0000000e+0 -1.00000000 0.0000000e+0
vn 0.0000000e+0 -1.00000000 0.0000000e+0
vn 0.0000000e+0 -1.00000000 0.0000000e+0
vn 0.0000000e+0 -1.00000000 0.0000000e+0
vn 0.0000000e+0 -1.00000000 0.0000000e+0
g floor_white
usemtl white
s 1
f 62//62 63//63 64//64 61//61
f 65//65 68//68 67//67 66//66
f 69//69 72//72 71//71 70//70
o tall_block
#20 vertices, 5 faces
v 158.60840201 166.67654110 247.00000000
v 0.60840201 166.67654110 296.00000000
v 49.60840201 166.67654110 456.00000000
v 207.60840201 166.67654110 406.00000000
v 158.60840201 -163.32345890 247.00000000
v 158.60840201 166.67654110 247.00000000
v 207.60840201 166.67654110 406.00000000
v 207.60840201 -163.32345890 406.00000000
v 207.60840201 -163.32345890 406.00000000
v 207.60840201 166.67654110 406.00000000
v 49.60840201 166.67654110 456.00000000
v 49.60840201 -163.32345890 456.00000000
v 49.60840201 -163.32345890 456.00000000
v 49.60840201 166.67654110 456.00000000
v 0.60840201 166.67654110 296.00000000
v 0.60840201 -163.32345890 296.00000000
v 0.60840201 -163.32345890 296.00000000
v 0.60840201 166.67654110 296.00000000
v 158.60840201 166.67654110 247.00000000
v 158.60840201 -163.32345890 247.00000000
vn 0.0000000e+0 1.00000000 0.0000000e+0
vn 0.0000000e+0 1.00000000 0.0000000e+0
vn 0.0000000e+0 1.00000000 0.0000000e+0
vn 0.0000000e+0 1.00000000 0.0000000e+0
vn 0.95564896 0.0000000e+0 -0.29450817
vn 0.95564896 0.0000000e+0 -0.29450817
vn 0.95564896 0.0000000e+0 -0.29450817
vn 0.95564896 0.0000000e+0 -0.29450817
vn 0.30170889 0.0000000e+0 0.95340010
vn 0.30170889 0.0000000e+0 0.95340010
vn 0.30170889 0.0000000e+0 0.95340010
vn 0.30170889 0.0000000e+0 0.95340010
vn -0.95616581 0.0000000e+0 0.29282578
vn -0.95616581 0.0000000e+0 0.29282578
vn -0.95616581 0.0000000e+0 0.29282578
vn -0.95616581 0.0000000e+0 0.29282578
vn -0.29620907 0.0000000e+0 -0.95512313
vn -0.29620907 0.0000000e+0 -0.95512313
vn -0.29620907 0.0000000e+0 -0.95512313
vn -0.29620907 0.0000000e+0 -0.95512313
g tall_block_white
usemtl white
s 1
f 74//74 75//75 76//76 73//73
f 78//78 79//79 80//80 77//77
f 82//82 83//83 84//84 81//81
f 86//86 87//87 88//88 85//85
f 90//90 91//91 92//92 89//89
o short_block
#20 vertices, 5 faces
v -134.39159799 1.67654110 65.00000000
v -182.39159799 1.67654110 225.00000000
v -24.39159799 1.67654110 272.00000000
v 25.60840201 1.67654110 114.00000000
v 25.60840201 -163.32345890 114.00000000
v 25.60840201 1.67654110 114.00000000
v -24.39159799 1.67654110 272.00000000
v -24.39159799 -163.32345890 272.00000000
v -134.39159799 -163.32345890 65.00000000
v -134.39159799 1.67654110 65.00000000
v 25.60840201 1.67654110 114.00000000
v 25.60840201 -163.32345890 114.00000000
v -182.39159799 -163.32345890 225.00000000
v -182.39159799 1.67654110 225.00000000
v -134.39159799 1.67654110 65.00000000
v -134.39159799 -163.32345890 65.00000000
v -24.39159799 -163.32345890 272.00000000
v -24.39159799 1.67654110 272.00000000
v -182.39159799 1.67654110 225.00000000
v -182.39159799 -163.32345890 225.00000000
vt 3.0000000e-3 9.9351405e-3
vt 3.0000000e-3 0.99006486
vt 0.99700000 9.9351405e-3
vt 0.99700000 0.99006486
vn 0.0000000e+0 1.00000000 0.0000000e+0
vn 0.0000000e+0 1.00000000 0.0000000e+0
vn 0.0000000e+0 1.00000000 0.0000000e+0
vn 0.0000000e+0 1.00000000 0.0000000e+0
vn 0.95340010 0.0000000e+0 0.30170889
vn 0.95340010 0.0000000e+0 0.30170889
vn 0.95340010 0.0000000e+0 0.30170889
vn 0.95340010 0.0000000e+0 0.30170889
vn 0.29282578 0.0000000e+0 -0.95616581
vn 0.29282578 0.0000000e+0 -0.95616581
vn 0.29282578 0.0000000e+0 -0.95616581
vn 0.29282578 0.0000000e+0 -0.95616581
vn -0.95782629 0.0000000e+0 -0.28734789
vn -0.95782629 0.0000000e+0 -0.28734789
vn -0.95782629 0.0000000e+0 -0.28734789
vn -0.95782629 0.0000000e+0 -0.28734789
vn -0.28512091 0.0000000e+0 0.95849156
vn -0.28512091 0.0000000e+0 0.95849156
vn -0.28512091 0.0000000e+0 0.95849156
vn -0.28512091 0.0000000e+0 0.95849156
g short_block_short_block_auv
usemtl short_block_auv
s 1
f 102/8/102 103/6/103 104/5/104 101/7/101
g short_block_white
usemtl white
s 1
f 94//94 95//95 96//96 93//93
f 98//98 99//99 100//100 97//97
f 106//106 107//107 108//108 105//105
f 110//110 111//111 112//112 109//109
o red_wall
#4 vertices, 1 faces
v 288.40840201 -163.32345890 0.0000000e+0
v 285.20840201 -163.32345890 559.20000000
v 291.60840201 385.47654110 559.20000000
v 291.60840201 385.47654110 0.0000000e+0
vn -0.99995766 8.7459854e-3 -2.8611092e-3
vn -0.99995766 8.7459854e-3 -2.8611092e-3
vn -0.99995766 8.7459854e-3 -2.8611092e-3
vn -0.99995766 8.7459854e-3 -2.8611092e-3
g red_wall_red
usemtl red
s 1
f 114//114 115//115 116//116 113//113
o green_wall
#4 vertices, 1 faces
v -264.39159799 -163.32345890 559.20000000
v -264.39159799 -163.32345890 0.0000000e+0
v -264.39159799 385.47654110 0.0000000e+0
v -264.39159799 385.47654110 559.20000000
vn 1.00000000 0.0000000e+0 0.0000000e+0
vn 1.00000000 0.0000000e+0 0.0000000e+0
vn 1.00000000 0.0000000e+0 0.0000000e+0
vn 1.00000000 0.0000000e+0 0.0000000e+0
g green_wall_green
usemtl green
s 1
f 118//118 119//119 120//120 117//117
o back_wall
#4 vertices, 1 faces
v 285.20840201 -163.32345890 559.20000000
v -264.39159799 -163.32345890 559.20000000
v -264.39159799 385.47654110 559.20000000
v 291.60840201 385.47654110 559.20000000
vn 0.0000000e+0 0.0000000e+0 -1.00000000
vn 0.0000000e+0 0.0000000e+0 -1.00000000
vn 0.0000000e+0 0.0000000e+0 -1.00000000
vn 0.0000000e+0 0.0000000e+0 -1.00000000
g back_wall_white
usemtl white
s 1
f 122//122 123//123 124//124 121//121
o ceiling
#4 vertices, 1 faces
v 291.60840201 385.47654110 0.0000000e+0
v 291.60840201 385.47654110 559.20000000
v -264.39159799 385.47654110 559.20000000
v -264.39159799 385.47654110 0.0000000e+0
vn 0.0000000e+0 -1.00000000 0.0000000e+0
vn 0.0000000e+0 -1.00000000 0.0000000e+0
vn 0.0000000e+0 -1.00000000 0.0000000e+0
vn 0.0000000e+0 -1.00000000 0.0000000e+0
g ceiling_white
usemtl white
s 1
f 126//126 127//127 128//128 125//125
o light
#4 vertices, 1 faces
v 78.60840201 384.67654110 227.00000000
v 78.60840201 384.67654110 332.00000000
v -51.39159799 384.67654110 332.00000000
v -51.39159799 384.67654110 227.00000000
vn 0.0000000e+0 -1.00000000 0.0000000e+0
vn 0.0000000e+0 -1.00000000 0.0000000e+0
vn 0.0000000e+0 -1.00000000 0.0000000e+0
vn 0.0000000e+0 -1.00000000 0.0000000e+0
g light_light
usemtl light
s 1
f 130//130 131//131 132//132 129//129
o floor
#12 vertices, 3 faces
v 288.40840201 -163.32345890 0.0000000e+0
v -264.39159799 -163.32345890 0.0000000e+0
v -264.39159799 -163.32345890 559.20000000
v 285.20840201 -163.32345890 559.20000000
v -134.39159799 -163.32345890 65.00000000
v -182.39159799 -163.32345890 225.00000000
v -24.39159799 -163.32345890 272.00000000
v 25.60840201 -163.32345890 114.00000000
v 158.60840201 -163.32345890 247.00000000
v 0.60840201 -163.32345890 296.00000000
v 49.60840201 -163.32345890 456.00000000
v 207.60840201 -163.32345890 406.00000000
vn 0.0000000e+0 1.00000000 0.0000000e+0
vn 0.0000000e+0 1.00000000 0.0000000e+0
vn 0.0000000e+0 1.00000000 0.0000000e+0
vn 0.0000000e+0 1.00000000 0.0000000e+0
vn 0.0000000e+0 -1.00000000 0.0000000e+0
vn 0.0000000e+0 -1.00000000 0.0000000e+0
vn 0.0000000e+0 -1.00000000 0.0000000e+0
vn 0.0000000e+0 -1.00000000 0.0000000e+0
vn 0.0000000e+0 -1.00000000 0.0000000e+0
vn 0.0000000e+0 -1.00000000 0.0000000e+0
vn 0.0000000e+0 -1.00000000 0.0000000e+0
vn 0.0000000e+0 -1.00000000 0.0000000e+0
g floor_white
usemtl white
s 1
f 134//134 135//135 136//136 133//133
f 137//137 140//140 139//139 138//138
f 141//141 144//144 143//143 142//142
