# This file uses centimeters as units for non-parametric coordinates.

mtllib Diamond.mtl
g default
v 0.123683 0.013675 -0.018392
v -0.547516 1.147387 -0.051956
v -0.132692 1.268860 -0.327780
v 0.380059 1.268860 -0.327779
v 0.794883 1.147387 -0.051956
v 0.953332 0.950840 0.394336
v 0.794883 0.754293 0.840628
v 0.380059 0.632820 1.116452
v -0.132692 0.632820 1.116452
v -0.547516 0.754293 0.840628
v -0.705965 0.950840 0.394336
v -0.478672 1.103702 0.247800
v -0.388710 1.174863 0.086217
v -0.248592 1.231337 -0.042016
v -0.072034 1.267596 -0.124346
v 0.123683 1.280090 -0.152716
v 0.319400 1.267596 -0.124346
v 0.495959 1.231337 -0.042016
v 0.636077 1.174863 0.086217
v 0.726038 1.103702 0.247800
v 0.757037 1.024819 0.426917
v 0.726038 0.945936 0.606033
v 0.636077 0.874775 0.767616
v 0.495959 0.818301 0.895849
v 0.319400 0.782043 0.978180
v 0.123683 0.769549 1.006549
v -0.072033 0.782043 0.978180
v -0.248592 0.818301 0.895849
v -0.388710 0.874775 0.767616
v -0.478671 0.945936 0.606033
v -0.509670 1.024819 0.426917
v -0.819274 0.935700 0.052887
v -0.818981 0.921384 0.046686
v -0.678444 1.047099 -0.200063
v -0.678195 1.032749 -0.206186
v -0.459096 1.135507 -0.400806
v -0.458915 1.121129 -0.406866
v -0.182702 1.192267 -0.529691
v -0.182607 1.177872 -0.535711
v 0.123683 1.211826 -0.574101
v 0.123683 1.197424 -0.580107
v 0.430069 1.192267 -0.529691
v 0.429974 1.177872 -0.535711
v 0.706463 1.135507 -0.400806
v 0.706282 1.121129 -0.406866
v 0.925810 1.047099 -0.200063
v 0.925561 1.032749 -0.206186
v 1.066640 0.935700 0.052887
v 1.066348 0.921384 0.046686
v 1.115167 0.812213 0.333285
v 1.114859 0.797935 0.326997
v 1.066640 0.688725 0.613682
v 1.066348 0.674486 0.607307
v 0.925810 0.577326 0.866633
v 0.925561 0.563121 0.860179
v 0.706463 0.488919 1.067375
v 0.706282 0.474741 1.060859
v 0.430069 0.432158 1.196260
v 0.429974 0.417998 1.189704
v 0.123683 0.412599 1.240670
v 0.123683 0.398446 1.234101
v -0.182702 0.432158 1.196260
v -0.182607 0.417998 1.189704
v -0.459096 0.488919 1.067375
v -0.458915 0.474742 1.060859
v -0.678443 0.577326 0.866633
v -0.678194 0.563121 0.860179
v -0.819273 0.688725 0.613682
v -0.818980 0.674486 0.607307
v -0.867800 0.812213 0.333285
v -0.867492 0.797935 0.326997
v -0.347649 0.467530 0.014147
v -0.167616 0.567402 -0.212629
v 0.123683 0.605550 -0.299250
v 0.414983 0.567402 -0.212629
v 0.595015 0.467530 0.014147
v 0.595015 0.344081 0.294458
v 0.414984 0.244209 0.521236
v 0.123683 0.206060 0.607855
v -0.167616 0.244208 0.521234
v -0.347649 0.344081 0.294458
v 0.147250 0.036368 -0.016765
v 0.138248 0.041361 -0.028104
v 0.123683 0.043269 -0.032435
v 0.109118 0.041361 -0.028104
v 0.100117 0.036368 -0.016765
v 0.100117 0.030195 -0.002749
v 0.109118 0.025202 0.008590
v 0.123683 0.023294 0.012921
v 0.138248 0.025202 0.008590
v 0.147250 0.030195 -0.002749
vt 0.000000 0.000000
vt 1.000000 1.000000
vt 0.000000 1.000000
vt 0.000000 0.000000
vt 1.000000 1.000000
vt 0.000000 1.000000
vt 0.000000 0.000000
vt 1.000000 1.000000
vt 0.000000 1.000000
vt 0.000000 0.000000
vt 1.000000 1.000000
vt 0.000000 1.000000
vt 0.000000 0.000000
vt 1.000000 1.000000
vt 0.000000 1.000000
vt 0.000000 0.000000
vt 1.000000 1.000000
vt 0.000000 1.000000
vt 0.000000 0.000000
vt 1.000000 1.000000
vt 0.000000 1.000000
vt 0.000000 0.000000
vt 1.000000 1.000000
vt 0.000000 1.000000
vt 0.000000 0.000000
vt 1.000000 1.000000
vt 0.000000 1.000000
vt 0.000000 0.000000
vt 1.000000 1.000000
vt 0.000000 1.000000
vt 0.000000 1.000000
vt 0.000000 1.000000
vt 0.000000 1.000000
vt 0.000000 1.000000
vt 0.000000 1.000000
vt 0.000000 1.000000
vt 0.000000 1.000000
vt 0.000000 1.000000
vt 0.000000 1.000000
vt 0.000000 1.000000
vt 1.000000 0.000000
vt 1.000000 1.000000
vt 1.000000 0.000000
vt 1.000000 1.000000
vt 1.000000 0.000000
vt 1.000000 1.000000
vt 1.000000 0.000000
vt 1.000000 1.000000
vt 1.000000 0.000000
vt 1.000000 1.000000
vt 1.000000 0.000000
vt 1.000000 1.000000
vt 1.000000 0.000000
vt 1.000000 1.000000
vt 1.000000 0.000000
vt 1.000000 1.000000
vt 1.000000 0.000000
vt 1.000000 1.000000
vt 1.000000 0.000000
vt 1.000000 1.000000
vt 0.000000 1.000000
vt 0.000000 0.049995
vt 0.000000 1.000000
vt 0.000000 0.049995
vt 0.000000 1.000000
vt 0.000000 0.049995
vt 0.000000 1.000000
vt 0.000000 0.049995
vt 0.000000 1.000000
vt 0.000000 0.049995
vt 0.000000 1.000000
vt 0.000000 0.049995
vt 0.000000 1.000000
vt 0.000000 0.049995
vt 0.000000 1.000000
vt 0.000000 0.049995
vt 0.000000 1.000000
vt 0.000000 0.049995
vt 0.000000 1.000000
vt 0.000000 0.049995
vt 1.000000 1.000000
vt 1.000000 0.049995
vt 1.000000 1.000000
vt 1.000000 0.049995
vt 1.000000 1.000000
vt 1.000000 0.049995
vt 1.000000 1.000000
vt 1.000000 0.049995
vt 1.000000 1.000000
vt 1.000000 0.049995
vt 1.000000 1.000000
vt 1.000000 0.049996
vt 1.000000 1.000000
vt 1.000000 0.049995
vt 1.000000 1.000000
vt 1.000000 0.049995
vt 1.000000 1.000000
vt 1.000000 0.049995
vt 1.000000 1.000000
vt 1.000000 0.049995
vt 1.000000 0.049995
vt 0.000000 0.049995
vt 1.000000 0.049996
vt 0.000000 0.049995
vt 1.000000 0.049995
vt 0.000000 0.049995
vt 1.000000 0.049995
vt 0.000000 0.049995
vt 1.000000 0.049995
vt 0.000000 0.049995
vt 1.000000 0.049996
vt 0.000000 0.049995
vt 1.000000 0.049996
vt 0.000000 0.049995
vt 1.000000 0.049995
vt 0.000000 0.049995
vt 1.000000 0.049995
vt 0.000000 0.049995
vt 1.000000 0.049995
vt 0.000000 0.049995
vt 0.276986 0.504414
vt 0.376103 0.752207
vt 0.252207 0.504414
vt 0.400883 0.752207
vt 0.301765 0.504414
vt 0.326545 0.504414
vt 0.425662 0.752206
vt 0.351323 0.504412
vt 0.376104 0.504414
vt 0.450441 0.752206
vt 0.400882 0.504412
vt 0.425662 0.504412
vt 0.475221 0.752206
vt 0.450441 0.504412
vt 0.475221 0.504412
vt 0.500000 0.752207
vt 0.500000 0.504414
vt 0.524779 0.504414
vt 0.524779 0.752206
vt 0.549559 0.504414
vt 0.574338 0.504414
vt 0.549559 0.752207
vt 0.599117 0.504414
vt 0.623897 0.504414
vt 0.574338 0.752207
vt 0.648676 0.504414
vt 0.673455 0.504414
vt 0.599117 0.752206
vt 0.698234 0.504414
vt 0.723014 0.504414
vt 0.623897 0.752207
vt 0.747793 0.504414
vt 0.250177 0.500000
vt 0.274823 0.500000
vt 0.749823 0.500000
vt 0.725177 0.500000
vt 0.275177 0.500000
vt 0.299823 0.500000
vt 0.300177 0.500000
vt 0.324823 0.500000
vt 0.325177 0.500000
vt 0.349823 0.500000
vt 0.350177 0.500000
vt 0.374823 0.500000
vt 0.375177 0.500000
vt 0.399823 0.500000
vt 0.400177 0.500000
vt 0.424823 0.500000
vt 0.425177 0.500000
vt 0.449823 0.500000
vt 0.450177 0.500000
vt 0.474823 0.500000
vt 0.475177 0.500000
vt 0.499823 0.500000
vt 0.500177 0.500000
vt 0.524823 0.500000
vt 0.525177 0.500000
vt 0.549823 0.500000
vt 0.550177 0.500000
vt 0.574823 0.500000
vt 0.575177 0.500000
vt 0.599823 0.500000
vt 0.600177 0.500000
vt 0.624823 0.500000
vt 0.625177 0.500000
vt 0.649823 0.500000
vt 0.650177 0.500000
vt 0.674823 0.500000
vt 0.675177 0.500000
vt 0.699823 0.500000
vt 0.700177 0.500000
vt 0.724823 0.500000
vt 0.487610 0.876103
vt 0.475221 0.876103
vt 0.462831 0.876103
vt 0.450441 0.876103
vt 0.438052 0.876103
vt 0.561948 0.876103
vt 0.549559 0.876103
vt 0.537169 0.876104
vt 0.524779 0.876103
vt 0.512390 0.876103
vt 0.500000 0.876103
vt 0.500000 1.000000
vn -0.342887 0.915115 0.212116
vn -0.342887 0.915115 0.212116
vn -0.342887 0.915115 0.212116
vn -0.174709 0.982898 0.058203
vn -0.174709 0.982898 0.058203
vn -0.174709 0.982898 0.058203
vn 0.060201 0.997894 0.024153
vn 0.060201 0.997894 0.024153
vn 0.060201 0.997894 0.024153
vn 0.272117 0.954374 0.122971
vn 0.272117 0.954374 0.122971
vn 0.272117 0.954374 0.122971
vn 0.380093 0.868963 0.316911
vn 0.380093 0.868963 0.316911
vn 0.380093 0.868963 0.316911
vn 0.342887 0.774283 0.531897
vn 0.342887 0.774283 0.531897
vn 0.342887 0.774283 0.531897
vn 0.174709 0.706500 0.685809
vn 0.174709 0.706500 0.685809
vn 0.174709 0.706500 0.685809
vn -0.060201 0.691504 0.719859
vn -0.060201 0.691504 0.719859
vn -0.060201 0.691504 0.719859
vn -0.272116 0.735024 0.621041
vn -0.272116 0.735024 0.621041
vn -0.272116 0.735024 0.621041
vn -0.380093 0.820435 0.427101
vn -0.380093 0.820435 0.427101
vn -0.380093 0.820435 0.427101
vn 0.000000 0.915180 0.403046
vn 0.000000 0.915180 0.403046
vn 0.000000 0.915180 0.403046
vn 0.000000 0.915180 0.403046
vn 0.000000 0.915180 0.403046
vn 0.000000 0.915180 0.403046
vn 0.000000 0.915180 0.403046
vn 0.000000 0.915180 0.403046
vn 0.000000 0.915180 0.403046
vn 0.000000 0.915180 0.403046
vn 0.000000 0.915180 0.403046
vn 0.000000 0.915180 0.403046
vn 0.000000 0.915180 0.403046
vn 0.000000 0.915180 0.403046
vn 0.000000 0.915180 0.403046
vn 0.000000 0.915180 0.403046
vn 0.000000 0.915180 0.403046
vn 0.000000 0.915180 0.403046
vn 0.000000 0.915180 0.403046
vn 0.000000 0.915180 0.403046
vn -0.272116 0.954375 0.122971
vn -0.272116 0.954375 0.122971
vn -0.272116 0.954375 0.122971
vn -0.060201 0.997894 0.024152
vn -0.060201 0.997894 0.024152
vn -0.060201 0.997894 0.024152
vn 0.174710 0.982898 0.058203
vn 0.174710 0.982898 0.058203
vn 0.174710 0.982898 0.058203
vn 0.342887 0.915115 0.212116
vn 0.342887 0.915115 0.212116
vn 0.342887 0.915115 0.212116
vn 0.380093 0.820436 0.427101
vn 0.380093 0.820436 0.427101
vn 0.380093 0.820436 0.427101
vn 0.272116 0.735024 0.621041
vn 0.272116 0.735024 0.621041
vn 0.272116 0.735024 0.621041
vn 0.060201 0.691505 0.719859
vn 0.060201 0.691505 0.719859
vn 0.060201 0.691505 0.719859
vn -0.174710 0.706500 0.685809
vn -0.174710 0.706500 0.685809
vn -0.174710 0.706500 0.685809
vn -0.342887 0.774283 0.531897
vn -0.342887 0.774283 0.531897
vn -0.342887 0.774283 0.531897
vn -0.380093 0.868963 0.316912
vn -0.380093 0.868963 0.316912
vn -0.380093 0.868963 0.316912
vn -0.319878 0.945241 -0.064795
vn -0.319878 0.945241 -0.064795
vn -0.319878 0.945241 -0.064795
vn -0.319878 0.945241 -0.064795
vn 0.000000 0.987131 -0.159914
vn 0.000000 0.987131 -0.159914
vn 0.000000 0.987131 -0.159914
vn 0.000000 0.987131 -0.159914
vn 0.319878 0.945241 -0.064795
vn 0.319878 0.945241 -0.064795
vn 0.319878 0.945241 -0.064795
vn 0.319878 0.945241 -0.064795
vn 0.517573 0.835570 0.184230
vn 0.517573 0.835570 0.184230
vn 0.517573 0.835570 0.184230
vn 0.517573 0.835570 0.184230
vn 0.517573 0.700010 0.492041
vn 0.517573 0.700010 0.492041
vn 0.517573 0.700010 0.492041
vn 0.517573 0.700010 0.492041
vn 0.319878 0.590339 0.741065
vn 0.319878 0.590339 0.741065
vn 0.319878 0.590339 0.741065
vn 0.319878 0.590339 0.741065
vn 0.000000 0.548449 0.836184
vn 0.000000 0.548449 0.836184
vn 0.000000 0.548449 0.836184
vn 0.000000 0.548449 0.836184
vn -0.319878 0.590340 0.741065
vn -0.319878 0.590339 0.741065
vn -0.319878 0.590340 0.741065
vn -0.319878 0.590339 0.741065
vn -0.517573 0.700010 0.492041
vn -0.517573 0.700010 0.492041
vn -0.517573 0.700010 0.492041
vn -0.517573 0.700010 0.492041
vn -0.517573 0.835570 0.184230
vn -0.517573 0.835570 0.184230
vn -0.517573 0.835570 0.184230
vn -0.517573 0.835570 0.184230
vn -0.486386 0.860319 -0.152580
vn -0.486386 0.860319 -0.152580
vn -0.486386 0.860319 -0.152580
vn -0.107604 0.938106 -0.329209
vn -0.107604 0.938106 -0.329209
vn -0.107604 0.938106 -0.329209
vn 0.312279 0.911303 -0.268346
vn 0.312279 0.911303 -0.268346
vn 0.312279 0.911303 -0.268346
vn 0.612882 0.790145 0.006759
vn 0.612882 0.790145 0.006759
vn 0.612882 0.790145 0.006759
vn 0.679385 0.620913 0.391027
vn 0.679385 0.620913 0.391027
vn 0.679385 0.620913 0.391027
vn 0.486386 0.468247 0.737681
vn 0.486386 0.468247 0.737681
vn 0.486386 0.468247 0.737681
vn 0.107604 0.390460 0.914310
vn 0.107604 0.390460 0.914310
vn 0.107604 0.390460 0.914310
vn -0.312279 0.417263 0.853448
vn -0.312279 0.417263 0.853448
vn -0.312279 0.417263 0.853448
vn -0.612882 0.538420 0.578342
vn -0.612882 0.538420 0.578342
vn -0.612882 0.538420 0.578342
vn -0.679385 0.707652 0.194075
vn -0.679385 0.707652 0.194075
vn -0.679385 0.707652 0.194075
vn 0.679385 0.707652 0.194073
vn 0.679385 0.707652 0.194073
vn 0.679385 0.707652 0.194073
vn 0.486386 0.860319 -0.152580
vn 0.486386 0.860319 -0.152580
vn 0.486386 0.860319 -0.152580
vn 0.107604 0.938106 -0.329209
vn 0.107604 0.938106 -0.329209
vn 0.107604 0.938106 -0.329209
vn -0.312279 0.911302 -0.268347
vn -0.312279 0.911302 -0.268347
vn -0.312279 0.911302 -0.268347
vn -0.612882 0.790145 0.006759
vn -0.612882 0.790146 0.006759
vn -0.612882 0.790146 0.006759
vn -0.679385 0.620914 0.391028
vn -0.679385 0.620914 0.391028
vn -0.679385 0.620914 0.391028
vn -0.486386 0.468247 0.737681
vn -0.486386 0.468247 0.737681
vn -0.486386 0.468247 0.737681
vn -0.107604 0.390460 0.914310
vn -0.107604 0.390460 0.914310
vn -0.107604 0.390460 0.914310
vn 0.312279 0.417263 0.853448
vn 0.312279 0.417263 0.853448
vn 0.312279 0.417263 0.853448
vn 0.612882 0.538420 0.578342
vn 0.612882 0.538420 0.578342
vn 0.612882 0.538420 0.578342
vn -0.586866 -0.568103 -0.576930
vn -0.622016 -0.610850 -0.489855
vn -0.622016 -0.610850 -0.489855
vn -0.384427 -0.479048 -0.789131
vn -0.465739 -0.500909 -0.729505
vn -0.384427 -0.479049 -0.789131
vn -0.299023 -0.452089 -0.840358
vn -0.384427 -0.479048 -0.789131
vn -0.384427 -0.479049 -0.789131
vn 0.000000 -0.428705 -0.903445
vn -0.103036 -0.426423 -0.898636
vn 0.000000 -0.428705 -0.903445
vn 0.103036 -0.426423 -0.898636
vn 0.000000 -0.428705 -0.903445
vn 0.000000 -0.428705 -0.903445
vn 0.384427 -0.479049 -0.789131
vn 0.299023 -0.452089 -0.840357
vn 0.384427 -0.479049 -0.789131
vn 0.465739 -0.500909 -0.729505
vn 0.384427 -0.479049 -0.789131
vn 0.384427 -0.479049 -0.789131
vn 0.622016 -0.610850 -0.489855
vn 0.586866 -0.568103 -0.576930
vn 0.622016 -0.610850 -0.489855
vn 0.650546 -0.647094 -0.397567
vn 0.622016 -0.610850 -0.489855
vn 0.622016 -0.610850 -0.489855
vn 0.622016 -0.773765 -0.119930
vn 0.650546 -0.730151 -0.208973
vn 0.622016 -0.773765 -0.119930
vn 0.586866 -0.809143 -0.029610
vn 0.622016 -0.773765 -0.119930
vn 0.622016 -0.773765 -0.119930
vn 0.384427 -0.905567 0.179346
vn 0.465739 -0.876337 0.122965
vn 0.384427 -0.905567 0.179346
vn 0.299023 -0.925156 0.233818
vn 0.384427 -0.905567 0.179346
vn 0.384427 -0.905567 0.179346
vn 0.000000 -0.955910 0.293659
vn 0.103036 -0.950822 0.292096
vn 0.000000 -0.955910 0.293659
vn -0.103036 -0.950822 0.292097
vn 0.000000 -0.955910 0.293659
vn 0.000000 -0.955910 0.293659
vn -0.384427 -0.905567 0.179346
vn -0.299023 -0.925156 0.233818
vn -0.384427 -0.905567 0.179346
vn -0.465739 -0.876337 0.122965
vn -0.384427 -0.905567 0.179346
vn -0.384427 -0.905567 0.179346
vn -0.622016 -0.773765 -0.119930
vn -0.586866 -0.809143 -0.029610
vn -0.622016 -0.773765 -0.119930
vn -0.650546 -0.730151 -0.208973
vn -0.622016 -0.773765 -0.119930
vn -0.622016 -0.773765 -0.119930
vn -0.622016 -0.610850 -0.489855
vn -0.650546 -0.647095 -0.397565
vn -0.622016 -0.610850 -0.489855
vn -0.950872 0.106474 -0.290699
vn -0.950872 0.106474 -0.290699
vn -0.808859 0.218808 -0.545774
vn -0.808859 0.218808 -0.545774
vn -0.950872 0.106474 -0.290699
vn -0.950872 0.106474 -0.290699
vn -0.999806 -0.018051 -0.007949
vn -0.999806 -0.018051 -0.007949
vn -0.808859 0.218808 -0.545774
vn -0.808859 0.218808 -0.545774
vn -0.587671 0.307956 -0.748202
vn -0.587671 0.307956 -0.748202
vn -0.587671 0.307956 -0.748202
vn -0.587671 0.307956 -0.748202
vn -0.308957 0.365192 -0.878169
vn -0.308957 0.365192 -0.878169
vn -0.308957 0.365192 -0.878169
vn -0.308957 0.365192 -0.878169
vn 0.000000 0.384915 -0.922952
vn 0.000000 0.384915 -0.922952
vn 0.000000 0.384915 -0.922952
vn 0.000000 0.384915 -0.922952
vn 0.308957 0.365192 -0.878169
vn 0.308957 0.365192 -0.878169
vn 0.308957 0.365192 -0.878169
vn 0.308957 0.365192 -0.878169
vn 0.587671 0.307955 -0.748202
vn 0.587671 0.307955 -0.748202
vn 0.587671 0.307955 -0.748202
vn 0.587671 0.307955 -0.748202
vn 0.808859 0.218805 -0.545776
vn 0.808859 0.218805 -0.545776
vn 0.808859 0.218805 -0.545776
vn 0.808859 0.218805 -0.545776
vn 0.950871 0.106472 -0.290701
vn 0.950871 0.106472 -0.290701
vn 0.950871 0.106472 -0.290701
vn 0.950871 0.106472 -0.290701
vn 0.999806 -0.018048 -0.007948
vn 0.999806 -0.018048 -0.007948
vn 0.999806 -0.018048 -0.007948
vn 0.999806 -0.018048 -0.007948
vn 0.950872 -0.142573 0.274802
vn 0.950871 -0.142573 0.274803
vn 0.950871 -0.142573 0.274803
vn 0.950872 -0.142573 0.274802
vn 0.808859 -0.254909 0.529876
vn 0.808859 -0.254909 0.529876
vn 0.808859 -0.254909 0.529876
vn 0.808859 -0.254909 0.529876
vn 0.587671 -0.344059 0.732302
vn 0.587671 -0.344059 0.732302
vn 0.587671 -0.344059 0.732302
vn 0.587671 -0.344059 0.732302
vn 0.308957 -0.401297 0.862268
vn 0.308957 -0.401297 0.862268
vn 0.308957 -0.401297 0.862268
vn 0.308957 -0.401297 0.862268
vn 0.000000 -0.421019 0.907052
vn 0.000000 -0.421019 0.907052
vn 0.000000 -0.421019 0.907052
vn 0.000000 -0.421019 0.907052
vn -0.308957 -0.401297 0.862268
vn -0.308957 -0.401297 0.862268
vn -0.308957 -0.401297 0.862268
vn -0.308957 -0.401297 0.862268
vn -0.587671 -0.344059 0.732302
vn -0.587671 -0.344059 0.732302
vn -0.587671 -0.344059 0.732302
vn -0.587671 -0.344059 0.732302
vn -0.808859 -0.254910 0.529875
vn -0.808859 -0.254910 0.529875
vn -0.808859 -0.254910 0.529875
vn -0.808859 -0.254910 0.529875
vn -0.950871 -0.142577 0.274801
vn -0.950871 -0.142577 0.274801
vn -0.950871 -0.142577 0.274801
vn -0.950871 -0.142577 0.274801
vn -0.999806 -0.018051 -0.007949
vn -0.999806 -0.018051 -0.007949
vn 0.373302 -0.499825 -0.781550
vn 0.529100 -0.537389 -0.656708
vn 0.604016 -0.627812 -0.490935
vn 0.604016 -0.627812 -0.490935
vn 0.373302 -0.499825 -0.781550
vn 0.000000 -0.450938 -0.892555
vn 0.202098 -0.441633 -0.874137
vn 0.373302 -0.499825 -0.781550
vn 0.373302 -0.499825 -0.781550
vn 0.000000 -0.450938 -0.892555
vn -0.373302 -0.499825 -0.781550
vn -0.202098 -0.441633 -0.874137
vn 0.000000 -0.450938 -0.892555
vn 0.000000 -0.450938 -0.892555
vn -0.373302 -0.499825 -0.781550
vn -0.604016 -0.627812 -0.490935
vn -0.529100 -0.537389 -0.656708
vn -0.373302 -0.499825 -0.781550
vn -0.373302 -0.499825 -0.781550
vn -0.604016 -0.627813 -0.490934
vn -0.604016 -0.786013 -0.131714
vn -0.654004 -0.692326 -0.304900
vn -0.604016 -0.627812 -0.490935
vn -0.604016 -0.627813 -0.490934
vn -0.604016 -0.786013 -0.131714
vn -0.373302 -0.914000 0.158901
vn -0.529100 -0.847262 0.046907
vn -0.604016 -0.786013 -0.131714
vn -0.604016 -0.786013 -0.131714
vn -0.373302 -0.914000 0.158901
vn 0.000000 -0.962887 0.269906
vn -0.202098 -0.943018 0.264336
vn -0.373302 -0.914000 0.158901
vn -0.373302 -0.914000 0.158901
vn -0.000001 -0.962887 0.269906
vn 0.373302 -0.914000 0.158901
vn 0.202098 -0.943018 0.264336
vn 0.000000 -0.962887 0.269906
vn -0.000001 -0.962887 0.269906
vn 0.373302 -0.914000 0.158901
vn 0.604016 -0.786013 -0.131714
vn 0.529100 -0.847262 0.046907
vn 0.373302 -0.914000 0.158901
vn 0.373302 -0.914000 0.158901
vn 0.604016 -0.786013 -0.131715
vn 0.604016 -0.627812 -0.490935
vn 0.654004 -0.692326 -0.304901
vn 0.604016 -0.786013 -0.131714
vn 0.604016 -0.786013 -0.131715
vn 0.604016 -0.627812 -0.490935
vn 0.384428 -0.479049 -0.789131
vn 0.622016 -0.610851 -0.489854
vn 0.000001 -0.915180 -0.403045
vn 0.000000 -0.428706 -0.903444
vn 0.384428 -0.479049 -0.789131
vn 0.000001 -0.915180 -0.403045
vn -0.384429 -0.479050 -0.789130
vn 0.000000 -0.428706 -0.903444
vn 0.000001 -0.915180 -0.403045
vn -0.622017 -0.610849 -0.489856
vn -0.384429 -0.479050 -0.789130
vn 0.000001 -0.915180 -0.403045
vn -0.622017 -0.773765 -0.119931
vn -0.622017 -0.610849 -0.489856
vn 0.000001 -0.915180 -0.403045
vn -0.384427 -0.905566 0.179347
vn -0.622017 -0.773765 -0.119931
vn 0.000001 -0.915180 -0.403045
vn 0.000001 -0.955910 0.293660
vn -0.384427 -0.905566 0.179347
vn 0.000001 -0.915180 -0.403045
vn 0.384428 -0.905567 0.179345
vn 0.000001 -0.955910 0.293660
vn 0.000001 -0.915180 -0.403045
vn 0.622016 -0.773765 -0.119929
vn 0.384428 -0.905567 0.179345
vn 0.000001 -0.915180 -0.403045
vn 0.622016 -0.610851 -0.489854
vn 0.622016 -0.773765 -0.119929
vn 0.000001 -0.915180 -0.403045
s off
g Diamond_00:pCone1
usemtl initialShadingGroup
f 2/1/1 12/2/2 13/3/3
f 3/4/4 14/5/5 15/6/6
f 4/7/7 16/8/8 17/9/9
f 5/10/10 18/11/11 19/12/12
f 6/13/13 20/14/14 21/15/15
f 7/16/16 22/17/17 23/18/18
f 8/19/19 24/20/20 25/21/21
f 9/22/22 26/23/23 27/24/24
f 10/25/25 28/26/26 29/27/27
f 11/28/28 30/29/29 31/30/30
f 15/6/31 14/31/32 13/3/33 12/32/34 31/30/35 30/33/36 29/27/37 28/34/38 27/24/39 26/35/40 25/21/41 24/36/42 23/18/43 22/37/44 21/15/45 20/38/46 19/12/47 18/39/48 17/9/49 16/40/50
f 14/31/51 2/41/52 13/42/53
f 16/40/54 3/43/55 15/44/56
f 18/39/57 4/45/58 17/46/59
f 20/38/60 5/47/61 19/48/62
f 22/37/63 6/49/64 21/50/65
f 24/36/66 7/51/67 23/52/68
f 26/35/69 8/53/70 25/54/71
f 28/34/72 9/55/73 27/56/74
f 30/33/75 10/57/76 29/58/77
f 12/32/78 11/59/79 31/60/80
f 3/61/81 36/62/82 2/41/83 14/5/84
f 4/63/85 40/64/86 3/43/87 16/8/88
f 5/65/89 44/66/90 4/45/91 18/11/92
f 6/67/93 48/68/94 5/47/95 20/14/96
f 7/69/97 52/70/98 6/49/99 22/17/100
f 8/71/101 56/72/102 7/51/103 24/20/104
f 9/73/105 60/74/106 8/53/107 26/23/108
f 10/75/109 64/76/110 9/55/111 28/26/112
f 11/77/113 68/78/114 10/57/115 30/29/116
f 11/59/117 12/2/118 2/79/119 32/80/120
f 2/81/121 36/62/122 34/82/123
f 3/83/124 40/64/125 38/84/126
f 4/85/127 44/66/128 42/86/129
f 5/87/130 48/68/131 46/88/132
f 6/89/133 52/70/134 50/90/135
f 7/91/136 56/72/137 54/92/138
f 8/93/139 60/74/140 58/94/141
f 9/95/142 64/76/143 62/96/144
f 10/97/145 68/78/146 66/98/147
f 11/99/148 32/80/149 70/100/150
f 48/101/151 6/67/152 50/102/153
f 44/103/154 5/65/155 46/104/156
f 40/105/157 4/63/158 42/106/159
f 36/107/160 3/61/161 38/108/162
f 32/109/163 2/79/164 34/110/165
f 68/111/166 11/77/167 70/112/168
f 64/113/169 10/75/170 66/114/171
f 60/115/172 9/73/173 62/116/174
f 56/117/175 8/71/176 58/118/177
f 52/119/178 7/69/179 54/120/180
f 35/121/181 72/122/182 33/123/183
f 73/124/184 35/121/185 37/125/186
f 39/126/187 73/124/188 37/125/189
f 74/127/190 39/126/191 41/128/192
f 43/129/193 74/127/194 41/128/195
f 75/130/196 43/129/197 45/131/198
f 47/132/199 75/130/200 45/131/201
f 76/133/202 47/132/203 49/134/204
f 51/135/205 76/133/206 49/134/207
f 77/136/208 51/135/209 53/137/210
f 55/138/211 77/136/212 53/137/213
f 78/139/214 55/138/215 57/140/216
f 59/141/217 78/139/218 57/140/219
f 79/142/220 59/141/221 61/143/222
f 63/144/223 79/142/224 61/143/225
f 80/145/226 63/144/227 65/146/228
f 67/147/229 80/145/230 65/146/231
f 81/148/232 67/147/233 69/149/234
f 71/150/235 81/148/236 69/149/237
f 72/151/238 71/150/239 33/152/240
f 33/123/241 32/153/242 34/154/243 35/121/244
f 32/155/245 33/152/246 71/150/247 70/156/248
f 35/121/249 34/157/250 36/158/251 37/125/252
f 37/125/253 36/159/254 38/160/255 39/126/256
f 39/126/257 38/161/258 40/162/259 41/128/260
f 41/128/261 40/163/262 42/164/263 43/129/264
f 43/129/265 42/165/266 44/166/267 45/131/268
f 45/131/269 44/167/270 46/168/271 47/132/272
f 47/132/273 46/169/274 48/170/275 49/134/276
f 49/134/277 48/171/278 50/172/279 51/135/280
f 51/135/281 50/173/282 52/174/283 53/137/284
f 53/137/285 52/175/286 54/176/287 55/138/288
f 55/138/289 54/177/290 56/178/291 57/140/292
f 57/140/293 56/179/294 58/180/295 59/141/296
f 59/141/297 58/181/298 60/182/299 61/143/300
f 61/143/301 60/183/302 62/184/303 63/144/304
f 63/144/305 62/185/306 64/186/307 65/146/308
f 65/146/309 64/187/310 66/188/311 67/147/312
f 67/147/313 66/189/314 68/190/315 69/149/316
f 69/149/317 68/191/318 70/192/319 71/150/320
f 75/130/321 47/132/322 76/133/323 82/193/324 83/194/325
f 74/127/326 43/129/327 75/130/328 83/194/329 84/195/330
f 73/124/331 39/126/332 74/127/333 84/195/334 85/196/335
f 72/122/336 35/121/337 73/124/338 85/196/339 86/197/340
f 81/148/341 71/150/342 72/151/343 86/198/344 87/199/345
f 80/145/346 67/147/347 81/148/348 87/199/349 88/200/350
f 79/142/351 63/144/352 80/145/353 88/200/354 89/201/355
f 78/139/356 59/141/357 79/142/358 89/201/359 90/202/360
f 77/136/361 55/138/362 78/139/363 90/202/364 91/203/365
f 76/133/366 51/135/367 77/136/368 91/203/369 82/193/370
f 83/194/371 82/193/372 1/204/373
f 84/195/374 83/194/375 1/204/376
f 85/196/377 84/195/378 1/204/379
f 86/197/380 85/196/381 1/204/382
f 87/199/383 86/198/384 1/204/385
f 88/200/386 87/199/387 1/204/388
f 89/201/389 88/200/390 1/204/391
f 90/202/392 89/201/393 1/204/394
f 91/203/395 90/202/396 1/204/397
f 82/193/398 91/203/399 1/204/400
